<?xml version="1.0" encoding="utf-8"?>
<svg version="1.1" xmlns:xlink="http://www.w3.org/1999/xlink" width="11px" height="11px" xmlns="http://www.w3.org/2000/svg">
  <g transform="matrix(1 0 0 1 -333 -247 )">
    <path d="M 338.5 247  C 341.58 247  344 249.42  344 252.5  C 344 255.58  341.58 258  338.5 258  C 335.42 258  333 255.58  333 252.5  C 333 249.42  335.42 247  338.5 247  Z " fill-rule="nonzero" fill="#999999" stroke="none" />
    <path d="M 338.5 247.5  C 341.3 247.5  343.5 249.7  343.5 252.5  C 343.5 255.3  341.3 257.5  338.5 257.5  C 335.7 257.5  333.5 255.3  333.5 252.5  C 333.5 249.7  335.7 247.5  338.5 247.5  Z " stroke-width="1" stroke="#ffffff" fill="none" />
  </g>
</svg>